<svg width="704" height="523" viewBox="0 0 704 523" fill="none" xmlns="http://www.w3.org/2000/svg">
<rect width="704" height="523" fill="#F7DF1E"/>
<path d="M329.648 147.455V402H271.977L180.003 268.264H178.511V402H109.406V147.455H168.071L258.554 280.693H260.543V147.455H329.648ZM527.641 231.474C526.564 227.083 524.866 223.23 522.545 219.915C520.225 216.518 517.325 213.66 513.845 211.339C510.448 208.937 506.471 207.155 501.913 205.995C497.439 204.752 492.509 204.131 487.123 204.131C475.522 204.131 465.621 206.906 457.418 212.458C449.297 218.01 443.083 226.006 438.774 236.446C434.548 246.886 432.435 259.481 432.435 274.23C432.435 289.145 434.465 301.905 438.526 312.511C442.586 323.117 448.634 331.238 456.672 336.872C464.709 342.507 474.694 345.324 486.626 345.324C497.149 345.324 505.891 343.791 512.851 340.725C519.894 337.659 525.156 333.309 528.636 327.675C532.116 322.04 533.856 315.411 533.856 307.788L545.788 309.031H487.62V259.812H600.475V295.111C600.475 318.312 595.545 338.156 585.685 354.646C575.907 371.052 562.401 383.647 545.166 392.43C528.014 401.13 508.335 405.48 486.129 405.48C461.353 405.48 439.603 400.219 420.876 389.695C402.15 379.172 387.525 364.174 377.002 344.702C366.562 325.23 361.342 302.071 361.342 275.224C361.342 254.178 364.532 235.535 370.912 219.294C377.375 203.054 386.324 189.34 397.759 178.154C409.193 166.885 422.409 158.392 437.407 152.675C452.405 146.875 468.479 143.974 485.631 143.974C500.712 143.974 514.715 146.129 527.641 150.438C540.65 154.663 552.126 160.712 562.07 168.584C572.096 176.373 580.174 185.612 586.306 196.3C592.438 206.989 596.166 218.714 597.492 231.474H527.641Z" fill="black"/>
</svg>
